<svg width="1536" height="1536" viewBox="0 0 1536 1536" fill="none" xmlns="http://www.w3.org/2000/svg">
<rect width="1536" height="1536" fill="#273D4F"/>
<rect x="728.979" y="1436.01" width="158.764" height="707.021" transform="rotate(-90 728.979 1436.01)" fill="#F3752B"/>
<rect x="728.979" y="887.773" width="158.764" height="355.105" transform="rotate(-90 728.979 887.773)" fill="#F3752B"/>
<rect x="728.979" y="728.977" width="159.478" height="707.028" fill="#F3752B"/>
<rect x="1276.52" y="1079.32" width="159.478" height="356.689" fill="#F3752B"/>
<path d="M971.361 841.247L1084.15 729.009L1435.87 1079.15L1323.18 1191.49L971.361 841.247Z" fill="#F3752B"/>
<rect x="808.142" y="1158.71" width="159.552" height="1057.92" transform="rotate(180 808.142 1158.71)" fill="#BCDEFD"/>
<rect x="260.348" y="1161.89" width="159.552" height="710.573" transform="rotate(180 260.348 1161.89)" fill="#BCDEFD"/>
<rect x="100.797" y="808.193" width="158.846" height="707.346" transform="rotate(-90 100.797 808.193)" fill="#BCDEFD"/>
<rect x="452.924" y="259.725" width="158.846" height="355.268" transform="rotate(-90 452.924 259.725)" fill="#BCDEFD"/>
<path d="M213.663 563.648L100.868 451.303L452.855 100.871L565.751 213.116L213.663 563.648Z" fill="#BCDEFD"/>
</svg>
